<svg xmlns="http://www.w3.org/2000/svg" xmlns:xlink="http://www.w3.org/1999/xlink"><symbol id="icon-array-to-left"><path d="M722.97 8H178.524v99.369H6.577" stroke="#FCB72B" stroke-width="15" stroke-linejoin="bevel"/><path d="M43.693 145.639L6.208 107.213l37.485-38.426" stroke="#FCB72B" stroke-width="15" stroke-linejoin="bevel"/></symbol><symbol id="icon-array-to-right"><path d="M.03 8h558.115v99.369h176.264" stroke="#FCB72B" stroke-width="15" stroke-linejoin="bevel"/><path d="M696.361 145.639l38.426-38.426-38.426-38.426" stroke="#FCB72B" stroke-width="15" stroke-linejoin="bevel"/></symbol><symbol id="icon-fb"><path d="M22.675 0H1.325C.593 0 0 .593 0 1.325v21.351C0 23.407.593 24 1.325 24H12.82v-9.294H9.692v-3.622h3.128V8.413c0-3.1 1.893-4.788 4.659-4.788 1.325 0 2.463.099 2.795.143v3.24l-1.918.001c-1.504 0-1.795.715-1.795 1.763v2.313h3.587l-.467 3.622h-3.12V24h6.116c.73 0 1.323-.593 1.323-1.325V1.325C24 .593 23.407 0 22.675 0z" fill="#FCB72B"/></symbol><symbol id="icon-footer-logo"><path fill-rule="evenodd" clip-rule="evenodd" d="M107.697 23.2V28h-8.4c-.906 0-1.647-.293-2.22-.88-.573-.587-.86-1.333-.86-2.24V12.96h-5.88v-4.8h5.88V0h5.04v8.16h7.16v4.8h-7.16V22c0 .8.36 1.2 1.08 1.2h5.36zM9.72 28.56c2.613 0 4.64-.587 6.08-1.76 1.44-1.173 2.16-2.747 2.16-4.72v-.24c0-1.787-.64-3.18-1.92-4.18-1.28-1-2.933-1.607-4.96-1.82-1.76-.187-2.973-.42-3.64-.7-.667-.28-1-.74-1-1.38 0-.453.213-.833.64-1.14.427-.307 1.067-.46 1.92-.46.933 0 1.693.207 2.28.62.587.413 1 .98 1.24 1.7l4.56-1.84a8.837 8.837 0 00-.92-1.74c-.4-.6-.92-1.147-1.56-1.64-.64-.493-1.42-.893-2.34-1.2-.92-.307-2.007-.46-3.26-.46-.96 0-1.893.133-2.8.4a7.473 7.473 0 00-2.4 1.18 6.193 6.193 0 00-1.68 1.9c-.427.747-.64 1.613-.64 2.6v.24c0 1.893.66 3.327 1.98 4.3 1.32.973 3.1 1.553 5.34 1.74.827.08 1.513.187 2.06.32.547.133.98.3 1.3.5.32.2.54.413.66.64.12.227.18.473.18.74 0 .453-.233.873-.7 1.26-.467.387-1.327.58-2.58.58-1.413 0-2.46-.32-3.14-.96-.68-.64-1.127-1.387-1.34-2.24L.6 22.32c.133.693.393 1.407.78 2.14.387.733.94 1.4 1.66 2 .72.6 1.627 1.1 2.72 1.5 1.093.4 2.413.6 3.96.6zm22.454 0c2.827 0 5.087-.72 6.78-2.16 1.694-1.44 2.767-3.333 3.22-5.68l-4.96-1.24c-.24 1.307-.766 2.347-1.58 3.12-.813.773-1.993 1.16-3.54 1.16-.72 0-1.4-.113-2.04-.34a4.705 4.705 0 01-1.68-1.02c-.48-.453-.86-1.02-1.14-1.7-.28-.68-.42-1.46-.42-2.34v-.24c0-.88.14-1.673.42-2.38.28-.707.66-1.307 1.14-1.8a5.006 5.006 0 011.68-1.14 5.25 5.25 0 012.04-.4c1.547 0 2.747.427 3.6 1.28a5.184 5.184 0 011.52 3.04l4.96-1.28c-.453-2.347-1.54-4.24-3.26-5.68-1.72-1.44-3.966-2.16-6.74-2.16-1.44 0-2.793.24-4.06.72a9.725 9.725 0 00-3.32 2.08c-.946.907-1.686 2-2.22 3.28-.533 1.28-.8 2.72-.8 4.32v.48c0 1.6.267 3.027.8 4.28.534 1.253 1.267 2.307 2.2 3.16.934.853 2.034 1.507 3.3 1.96 1.267.453 2.634.68 4.1.68zm26.355-.68c-1.24.453-2.54.68-3.9.68-1.36 0-2.66-.227-3.9-.68a9.996 9.996 0 01-3.3-1.98c-.96-.867-1.72-1.933-2.28-3.2-.56-1.267-.84-2.727-.84-4.38v-.48c0-1.627.28-3.073.84-4.34.56-1.267 1.32-2.34 2.28-3.22a9.827 9.827 0 013.3-2c1.24-.453 2.54-.68 3.9-.68 1.36 0 2.66.227 3.9.68a9.827 9.827 0 013.3 2c.96.88 1.72 1.953 2.28 3.22.56 1.267.84 2.713.84 4.34v.48c0 1.653-.28 3.113-.84 4.38-.56 1.267-1.32 2.333-2.28 3.2a9.996 9.996 0 01-3.3 1.98zm-3.9-4.12c-.72 0-1.4-.12-2.04-.36-.64-.24-1.2-.587-1.68-1.04a4.911 4.911 0 01-1.14-1.66c-.28-.653-.42-1.393-.42-2.22v-.8c0-.827.14-1.567.42-2.22.28-.653.66-1.207 1.14-1.66.48-.453 1.04-.8 1.68-1.04.64-.24 1.32-.36 2.04-.36s1.4.12 2.04.36c.64.24 1.2.587 1.68 1.04.48.453.86 1.007 1.14 1.66.28.653.42 1.393.42 2.22v.8c0 .827-.14 1.567-.42 2.22a4.911 4.911 0 01-1.14 1.66c-.48.453-1.04.8-1.68 1.04-.64.24-1.32.36-2.04.36zm26.594 4.12c-1.24.453-2.54.68-3.9.68-1.36 0-2.66-.227-3.9-.68a9.996 9.996 0 01-3.3-1.98c-.96-.867-1.72-1.933-2.28-3.2-.56-1.267-.84-2.727-.84-4.38v-.48c0-1.627.28-3.073.84-4.34.56-1.267 1.32-2.34 2.28-3.22a9.827 9.827 0 013.3-2c1.24-.453 2.54-.68 3.9-.68 1.36 0 2.66.227 3.9.68a9.827 9.827 0 013.3 2c.96.88 1.72 1.953 2.28 3.22.56 1.267.84 2.713.84 4.34v.48c0 1.653-.28 3.113-.84 4.38-.56 1.267-1.32 2.333-2.28 3.2a9.996 9.996 0 01-3.3 1.98zm-3.9-4.12c-.72 0-1.4-.12-2.04-.36a4.95 4.95 0 01-1.68-1.04 4.911 4.911 0 01-1.14-1.66c-.28-.653-.42-1.393-.42-2.22v-.8c0-.827.14-1.567.42-2.22.28-.653.66-1.207 1.14-1.66a4.95 4.95 0 011.68-1.04c.64-.24 1.32-.36 2.04-.36s1.4.12 2.04.36c.64.24 1.2.587 1.68 1.04.48.453.86 1.007 1.14 1.66.28.653.42 1.393.42 2.22v.8c0 .827-.14 1.567-.42 2.22a4.911 4.911 0 01-1.14 1.66c-.48.453-1.04.8-1.68 1.04-.64.24-1.32.36-2.04.36z" fill="#fff"/></symbol><symbol id="icon-footer-logo@2x"><path fill-rule="evenodd" clip-rule="evenodd" d="M107.697 23.2V28h-8.4c-.906 0-1.647-.293-2.22-.88-.573-.587-.86-1.333-.86-2.24V12.96h-5.88v-4.8h5.88V0h5.04v8.16h7.16v4.8h-7.16V22c0 .8.36 1.2 1.08 1.2h5.36zM9.72 28.56c2.613 0 4.64-.587 6.08-1.76 1.44-1.173 2.16-2.747 2.16-4.72v-.24c0-1.787-.64-3.18-1.92-4.18-1.28-1-2.933-1.607-4.96-1.82-1.76-.187-2.973-.42-3.64-.7-.667-.28-1-.74-1-1.38 0-.453.213-.833.64-1.14.427-.307 1.067-.46 1.92-.46.933 0 1.693.207 2.28.62.587.413 1 .98 1.24 1.7l4.56-1.84a8.837 8.837 0 00-.92-1.74c-.4-.6-.92-1.147-1.56-1.64-.64-.493-1.42-.893-2.34-1.2-.92-.307-2.007-.46-3.26-.46-.96 0-1.893.133-2.8.4a7.473 7.473 0 00-2.4 1.18 6.193 6.193 0 00-1.68 1.9c-.427.747-.64 1.613-.64 2.6v.24c0 1.893.66 3.327 1.98 4.3 1.32.973 3.1 1.553 5.34 1.74.827.08 1.513.187 2.06.32.547.133.98.3 1.3.5.32.2.54.413.66.64.12.227.18.473.18.74 0 .453-.233.873-.7 1.26-.467.387-1.327.58-2.58.58-1.413 0-2.46-.32-3.14-.96-.68-.64-1.127-1.387-1.34-2.24L.6 22.32c.133.693.393 1.407.78 2.14.387.733.94 1.4 1.66 2 .72.6 1.627 1.1 2.72 1.5 1.093.4 2.413.6 3.96.6zm22.454 0c2.827 0 5.087-.72 6.78-2.16 1.694-1.44 2.767-3.333 3.22-5.68l-4.96-1.24c-.24 1.307-.766 2.347-1.58 3.12-.813.773-1.993 1.16-3.54 1.16-.72 0-1.4-.113-2.04-.34a4.705 4.705 0 01-1.68-1.02c-.48-.453-.86-1.02-1.14-1.7-.28-.68-.42-1.46-.42-2.34v-.24c0-.88.14-1.673.42-2.38.28-.707.66-1.307 1.14-1.8a5.006 5.006 0 011.68-1.14 5.25 5.25 0 012.04-.4c1.547 0 2.747.427 3.6 1.28a5.184 5.184 0 011.52 3.04l4.96-1.28c-.453-2.347-1.54-4.24-3.26-5.68-1.72-1.44-3.966-2.16-6.74-2.16-1.44 0-2.793.24-4.06.72a9.725 9.725 0 00-3.32 2.08c-.946.907-1.686 2-2.22 3.28-.533 1.28-.8 2.72-.8 4.32v.48c0 1.6.267 3.027.8 4.28.534 1.253 1.267 2.307 2.2 3.16.934.853 2.034 1.507 3.3 1.96 1.267.453 2.634.68 4.1.68zm26.355-.68c-1.24.453-2.54.68-3.9.68-1.36 0-2.66-.227-3.9-.68a9.996 9.996 0 01-3.3-1.98c-.96-.867-1.72-1.933-2.28-3.2-.56-1.267-.84-2.727-.84-4.38v-.48c0-1.627.28-3.073.84-4.34.56-1.267 1.32-2.34 2.28-3.22a9.827 9.827 0 013.3-2c1.24-.453 2.54-.68 3.9-.68 1.36 0 2.66.227 3.9.68a9.827 9.827 0 013.3 2c.96.88 1.72 1.953 2.28 3.22.56 1.267.84 2.713.84 4.34v.48c0 1.653-.28 3.113-.84 4.38-.56 1.267-1.32 2.333-2.28 3.2a9.996 9.996 0 01-3.3 1.98zm-3.9-4.12c-.72 0-1.4-.12-2.04-.36-.64-.24-1.2-.587-1.68-1.04a4.911 4.911 0 01-1.14-1.66c-.28-.653-.42-1.393-.42-2.22v-.8c0-.827.14-1.567.42-2.22.28-.653.66-1.207 1.14-1.66.48-.453 1.04-.8 1.68-1.04.64-.24 1.32-.36 2.04-.36s1.4.12 2.04.36c.64.24 1.2.587 1.68 1.04.48.453.86 1.007 1.14 1.66.28.653.42 1.393.42 2.22v.8c0 .827-.14 1.567-.42 2.22a4.911 4.911 0 01-1.14 1.66c-.48.453-1.04.8-1.68 1.04-.64.24-1.32.36-2.04.36zm26.594 4.12c-1.24.453-2.54.68-3.9.68-1.36 0-2.66-.227-3.9-.68a9.996 9.996 0 01-3.3-1.98c-.96-.867-1.72-1.933-2.28-3.2-.56-1.267-.84-2.727-.84-4.38v-.48c0-1.627.28-3.073.84-4.34.56-1.267 1.32-2.34 2.28-3.22a9.827 9.827 0 013.3-2c1.24-.453 2.54-.68 3.9-.68 1.36 0 2.66.227 3.9.68a9.827 9.827 0 013.3 2c.96.88 1.72 1.953 2.28 3.22.56 1.267.84 2.713.84 4.34v.48c0 1.653-.28 3.113-.84 4.38-.56 1.267-1.32 2.333-2.28 3.2a9.996 9.996 0 01-3.3 1.98zm-3.9-4.12c-.72 0-1.4-.12-2.04-.36a4.95 4.95 0 01-1.68-1.04 4.911 4.911 0 01-1.14-1.66c-.28-.653-.42-1.393-.42-2.22v-.8c0-.827.14-1.567.42-2.22.28-.653.66-1.207 1.14-1.66a4.95 4.95 0 011.68-1.04c.64-.24 1.32-.36 2.04-.36s1.4.12 2.04.36c.64.24 1.2.587 1.68 1.04.48.453.86 1.007 1.14 1.66.28.653.42 1.393.42 2.22v.8c0 .827-.14 1.567-.42 2.22a4.911 4.911 0 01-1.14 1.66c-.48.453-1.04.8-1.68 1.04-.64.24-1.32.36-2.04.36z" fill="#fff"/></symbol><symbol id="icon-header-logo"><path fill-rule="evenodd" clip-rule="evenodd" d="M107.097 23.2V28h-8.4c-.907 0-1.647-.293-2.22-.88-.573-.587-.86-1.333-.86-2.24V12.96h-5.88v-4.8h5.88V0h5.04v8.16h7.16v4.8h-7.16V22c0 .8.36 1.2 1.08 1.2h5.36zM9.12 28.56c2.613 0 4.64-.587 6.08-1.76 1.44-1.173 2.16-2.747 2.16-4.72v-.24c0-1.787-.64-3.18-1.92-4.18-1.28-1-2.933-1.607-4.96-1.82-1.76-.187-2.973-.42-3.64-.7-.667-.28-1-.74-1-1.38 0-.453.213-.833.64-1.14.427-.307 1.067-.46 1.92-.46.933 0 1.693.207 2.28.62.587.413 1 .98 1.24 1.7l4.56-1.84a8.832 8.832 0 00-.92-1.74c-.4-.6-.92-1.147-1.56-1.64-.64-.493-1.42-.893-2.34-1.2-.92-.307-2.007-.46-3.26-.46-.96 0-1.893.133-2.8.4a7.473 7.473 0 00-2.4 1.18 6.193 6.193 0 00-1.68 1.9c-.427.747-.64 1.613-.64 2.6v.24c0 1.893.66 3.327 1.98 4.3 1.32.973 3.1 1.553 5.34 1.74.827.08 1.513.187 2.06.32.547.133.98.3 1.3.5.32.2.54.413.66.64.12.227.18.473.18.74 0 .453-.233.873-.7 1.26-.467.387-1.327.58-2.58.58-1.413 0-2.46-.32-3.14-.96-.68-.64-1.127-1.387-1.34-2.24L0 22.32c.133.693.393 1.407.78 2.14.387.733.94 1.4 1.66 2 .72.6 1.627 1.1 2.72 1.5 1.093.4 2.413.6 3.96.6zm22.454 0c2.827 0 5.087-.72 6.78-2.16 1.694-1.44 2.767-3.333 3.22-5.68l-4.96-1.24c-.24 1.307-.766 2.347-1.58 3.12-.813.773-1.993 1.16-3.54 1.16-.72 0-1.4-.113-2.04-.34a4.705 4.705 0 01-1.68-1.02c-.48-.453-.86-1.02-1.14-1.7-.28-.68-.42-1.46-.42-2.34v-.24c0-.88.14-1.673.42-2.38.28-.707.66-1.307 1.14-1.8a5.006 5.006 0 011.68-1.14 5.25 5.25 0 012.04-.4c1.547 0 2.747.427 3.6 1.28a5.184 5.184 0 011.52 3.04l4.96-1.28c-.453-2.347-1.54-4.24-3.26-5.68-1.72-1.44-3.966-2.16-6.74-2.16-1.44 0-2.793.24-4.06.72a9.726 9.726 0 00-3.32 2.08c-.946.907-1.686 2-2.22 3.28-.533 1.28-.8 2.72-.8 4.32v.48c0 1.6.267 3.027.8 4.28.534 1.253 1.267 2.307 2.2 3.16.934.853 2.034 1.507 3.3 1.96 1.267.453 2.634.68 4.1.68zm26.355-.68c-1.24.453-2.54.68-3.9.68-1.36 0-2.66-.227-3.9-.68a9.996 9.996 0 01-3.3-1.98c-.96-.867-1.72-1.933-2.28-3.2-.56-1.267-.84-2.727-.84-4.38v-.48c0-1.627.28-3.073.84-4.34.56-1.267 1.32-2.34 2.28-3.22a9.827 9.827 0 013.3-2c1.24-.453 2.54-.68 3.9-.68 1.36 0 2.66.227 3.9.68a9.827 9.827 0 013.3 2c.96.88 1.72 1.953 2.28 3.22.56 1.267.84 2.713.84 4.34v.48c0 1.653-.28 3.113-.84 4.38-.56 1.267-1.32 2.333-2.28 3.2a9.996 9.996 0 01-3.3 1.98zm-3.9-4.12c-.72 0-1.4-.12-2.04-.36a4.95 4.95 0 01-1.68-1.04 4.911 4.911 0 01-1.14-1.66c-.28-.653-.42-1.393-.42-2.22v-.8c0-.827.14-1.567.42-2.22.28-.653.66-1.207 1.14-1.66a4.95 4.95 0 011.68-1.04c.64-.24 1.32-.36 2.04-.36s1.4.12 2.04.36c.64.24 1.2.587 1.68 1.04.48.453.86 1.007 1.14 1.66.28.653.42 1.393.42 2.22v.8c0 .827-.14 1.567-.42 2.22a4.911 4.911 0 01-1.14 1.66c-.48.453-1.04.8-1.68 1.04-.64.24-1.32.36-2.04.36zm26.594 4.12c-1.24.453-2.54.68-3.9.68-1.36 0-2.66-.227-3.9-.68a9.996 9.996 0 01-3.3-1.98c-.96-.867-1.72-1.933-2.28-3.2-.56-1.267-.84-2.727-.84-4.38v-.48c0-1.627.28-3.073.84-4.34.56-1.267 1.32-2.34 2.28-3.22a9.827 9.827 0 013.3-2c1.24-.453 2.54-.68 3.9-.68 1.36 0 2.66.227 3.9.68a9.827 9.827 0 013.3 2c.96.88 1.72 1.953 2.28 3.22.56 1.267.84 2.713.84 4.34v.48c0 1.653-.28 3.113-.84 4.38-.56 1.267-1.32 2.333-2.28 3.2a9.996 9.996 0 01-3.3 1.98zm-3.9-4.12c-.72 0-1.4-.12-2.04-.36a4.95 4.95 0 01-1.68-1.04 4.911 4.911 0 01-1.14-1.66c-.28-.653-.42-1.393-.42-2.22v-.8c0-.827.14-1.567.42-2.22.28-.653.66-1.207 1.14-1.66a4.95 4.95 0 011.68-1.04c.64-.24 1.32-.36 2.04-.36s1.4.12 2.04.36c.64.24 1.2.587 1.68 1.04.48.453.86 1.007 1.14 1.66.28.653.42 1.393.42 2.22v.8c0 .827-.14 1.567-.42 2.22a4.911 4.911 0 01-1.14 1.66c-.48.453-1.04.8-1.68 1.04-.64.24-1.32.36-2.04.36z" fill="#495567"/></symbol><symbol id="icon-header-logo@2x"><path fill-rule="evenodd" clip-rule="evenodd" d="M107.097 23.2V28h-8.4c-.907 0-1.647-.293-2.22-.88-.573-.587-.86-1.333-.86-2.24V12.96h-5.88v-4.8h5.88V0h5.04v8.16h7.16v4.8h-7.16V22c0 .8.36 1.2 1.08 1.2h5.36zM9.12 28.56c2.613 0 4.64-.587 6.08-1.76 1.44-1.173 2.16-2.747 2.16-4.72v-.24c0-1.787-.64-3.18-1.92-4.18-1.28-1-2.933-1.607-4.96-1.82-1.76-.187-2.973-.42-3.64-.7-.667-.28-1-.74-1-1.38 0-.453.213-.833.64-1.14.427-.307 1.067-.46 1.92-.46.933 0 1.693.207 2.28.62.587.413 1 .98 1.24 1.7l4.56-1.84a8.832 8.832 0 00-.92-1.74c-.4-.6-.92-1.147-1.56-1.64-.64-.493-1.42-.893-2.34-1.2-.92-.307-2.007-.46-3.26-.46-.96 0-1.893.133-2.8.4a7.473 7.473 0 00-2.4 1.18 6.193 6.193 0 00-1.68 1.9c-.427.747-.64 1.613-.64 2.6v.24c0 1.893.66 3.327 1.98 4.3 1.32.973 3.1 1.553 5.34 1.74.827.08 1.513.187 2.06.32.547.133.98.3 1.3.5.32.2.54.413.66.64.12.227.18.473.18.74 0 .453-.233.873-.7 1.26-.467.387-1.327.58-2.58.58-1.413 0-2.46-.32-3.14-.96-.68-.64-1.127-1.387-1.34-2.24L0 22.32c.133.693.393 1.407.78 2.14.387.733.94 1.4 1.66 2 .72.6 1.627 1.1 2.72 1.5 1.093.4 2.413.6 3.96.6zm22.454 0c2.827 0 5.087-.72 6.78-2.16 1.694-1.44 2.767-3.333 3.22-5.68l-4.96-1.24c-.24 1.307-.766 2.347-1.58 3.12-.813.773-1.993 1.16-3.54 1.16-.72 0-1.4-.113-2.04-.34a4.705 4.705 0 01-1.68-1.02c-.48-.453-.86-1.02-1.14-1.7-.28-.68-.42-1.46-.42-2.34v-.24c0-.88.14-1.673.42-2.38.28-.707.66-1.307 1.14-1.8a5.006 5.006 0 011.68-1.14 5.25 5.25 0 012.04-.4c1.547 0 2.747.427 3.6 1.28a5.184 5.184 0 011.52 3.04l4.96-1.28c-.453-2.347-1.54-4.24-3.26-5.68-1.72-1.44-3.966-2.16-6.74-2.16-1.44 0-2.793.24-4.06.72a9.726 9.726 0 00-3.32 2.08c-.946.907-1.686 2-2.22 3.28-.533 1.28-.8 2.72-.8 4.32v.48c0 1.6.267 3.027.8 4.28.534 1.253 1.267 2.307 2.2 3.16.934.853 2.034 1.507 3.3 1.96 1.267.453 2.634.68 4.1.68zm26.355-.68c-1.24.453-2.54.68-3.9.68-1.36 0-2.66-.227-3.9-.68a9.996 9.996 0 01-3.3-1.98c-.96-.867-1.72-1.933-2.28-3.2-.56-1.267-.84-2.727-.84-4.38v-.48c0-1.627.28-3.073.84-4.34.56-1.267 1.32-2.34 2.28-3.22a9.827 9.827 0 013.3-2c1.24-.453 2.54-.68 3.9-.68 1.36 0 2.66.227 3.9.68a9.827 9.827 0 013.3 2c.96.88 1.72 1.953 2.28 3.22.56 1.267.84 2.713.84 4.34v.48c0 1.653-.28 3.113-.84 4.38-.56 1.267-1.32 2.333-2.28 3.2a9.996 9.996 0 01-3.3 1.98zm-3.9-4.12c-.72 0-1.4-.12-2.04-.36a4.95 4.95 0 01-1.68-1.04 4.911 4.911 0 01-1.14-1.66c-.28-.653-.42-1.393-.42-2.22v-.8c0-.827.14-1.567.42-2.22.28-.653.66-1.207 1.14-1.66a4.95 4.95 0 011.68-1.04c.64-.24 1.32-.36 2.04-.36s1.4.12 2.04.36c.64.24 1.2.587 1.68 1.04.48.453.86 1.007 1.14 1.66.28.653.42 1.393.42 2.22v.8c0 .827-.14 1.567-.42 2.22a4.911 4.911 0 01-1.14 1.66c-.48.453-1.04.8-1.68 1.04-.64.24-1.32.36-2.04.36zm26.594 4.12c-1.24.453-2.54.68-3.9.68-1.36 0-2.66-.227-3.9-.68a9.996 9.996 0 01-3.3-1.98c-.96-.867-1.72-1.933-2.28-3.2-.56-1.267-.84-2.727-.84-4.38v-.48c0-1.627.28-3.073.84-4.34.56-1.267 1.32-2.34 2.28-3.22a9.827 9.827 0 013.3-2c1.24-.453 2.54-.68 3.9-.68 1.36 0 2.66.227 3.9.68a9.827 9.827 0 013.3 2c.96.88 1.72 1.953 2.28 3.22.56 1.267.84 2.713.84 4.34v.48c0 1.653-.28 3.113-.84 4.38-.56 1.267-1.32 2.333-2.28 3.2a9.996 9.996 0 01-3.3 1.98zm-3.9-4.12c-.72 0-1.4-.12-2.04-.36a4.95 4.95 0 01-1.68-1.04 4.911 4.911 0 01-1.14-1.66c-.28-.653-.42-1.393-.42-2.22v-.8c0-.827.14-1.567.42-2.22.28-.653.66-1.207 1.14-1.66a4.95 4.95 0 011.68-1.04c.64-.24 1.32-.36 2.04-.36s1.4.12 2.04.36c.64.24 1.2.587 1.68 1.04.48.453.86 1.007 1.14 1.66.28.653.42 1.393.42 2.22v.8c0 .827-.14 1.567-.42 2.22a4.911 4.911 0 01-1.14 1.66c-.48.453-1.04.8-1.68 1.04-.64.24-1.32.36-2.04.36z" fill="#495567"/></symbol><symbol id="icon-hero-array"><g stroke="#FCB72B" stroke-width="15" stroke-linejoin="bevel"><path d="M407.952 145.444l38.426-38.426-38.426-38.426"/><path d="M0 8h270.115v99.369h176.263"/></g></symbol><symbol id="icon-insta"><path fill-rule="evenodd" clip-rule="evenodd" d="M12 0C8.741 0 8.333.014 7.053.072 2.695.272.273 2.69.073 7.052.014 8.333 0 8.741 0 12c0 3.259.014 3.668.072 4.948.2 4.358 2.618 6.78 6.98 6.98C8.333 23.986 8.741 24 12 24c3.259 0 3.668-.014 4.948-.072 4.354-.2 6.782-2.618 6.979-6.98.059-1.28.073-1.689.073-4.948 0-3.259-.014-3.667-.072-4.947-.196-4.354-2.617-6.78-6.979-6.98C15.668.014 15.259 0 12 0zm0 2.163c3.204 0 3.584.012 4.85.07 3.252.148 4.771 1.691 4.919 4.919.058 1.265.069 1.645.069 4.849 0 3.205-.012 3.584-.069 4.849-.149 3.225-1.664 4.771-4.919 4.919-1.266.058-1.644.07-4.85.07-3.204 0-3.584-.012-4.849-.07-3.26-.149-4.771-1.699-4.919-4.92-.058-1.265-.07-1.644-.07-4.849 0-3.204.013-3.583.07-4.849.149-3.227 1.664-4.771 4.919-4.919 1.266-.057 1.645-.069 4.849-.069zM5.838 12a6.162 6.162 0 1112.324 0 6.162 6.162 0 01-12.324 0zM12 16a4 4 0 110-8 4 4 0 010 8zm4.965-10.405a1.44 1.44 0 112.881.001 1.44 1.44 0 01-2.881-.001z" fill="#FCB72B"/></symbol><symbol id="icon-locate"><path fill-rule="evenodd" clip-rule="evenodd" d="M24.8 0H4.01A4.003 4.003 0 00.014 3.998v39.979a4.003 4.003 0 003.998 3.997H24v-1.43a18.177 18.177 0 013.064-10.12.8.8 0 00-.1-1.008l-5.597-5.597a2.593 2.593 0 01.19-3.838 2.693 2.693 0 013.58.275l7.892 7.893 1.131-1.13-5.363-5.365V3.998A4.003 4.003 0 0024.8 0zm2.398 26.055l-.93-.93a4.304 4.304 0 00-5.729-.38 4.193 4.193 0 00-.303 6.204l5.142 5.142a19.768 19.768 0 00-2.972 10.284H4.011a2.4 2.4 0 01-2.4-2.398v-2.4h19.99V39.98H1.611V6.397h25.587v19.658zM1.612 4.797h25.586v-.8A2.4 2.4 0 0024.8 1.6H4.011a2.4 2.4 0 00-2.4 2.399v.8zM31.155 18.6l-1.078 1.18 4.903 4.494a5.61 5.61 0 011.813 4.127v19.573h1.6V28.401a7.215 7.215 0 00-2.334-5.305L31.155 18.6zM4.81 14.393h3.198c.884 0 1.6-.715 1.6-1.599V9.595a1.6 1.6 0 00-1.6-1.6H4.81a1.6 1.6 0 00-1.599 1.6v3.198a1.6 1.6 0 001.6 1.6zm0-4.797h3.198v3.198H4.81V9.595zm11.194 4.797h-3.198a1.6 1.6 0 01-1.6-1.599V9.595a1.6 1.6 0 011.6-1.6h3.198a1.6 1.6 0 011.6 1.6v3.198a1.6 1.6 0 01-1.6 1.6zm0-4.797h-3.198v3.198h3.198V9.595zm4.798 4.797H24c.883 0 1.599-.715 1.599-1.599V9.595a1.6 1.6 0 00-1.6-1.6h-3.197a1.6 1.6 0 00-1.6 1.6v3.198a1.6 1.6 0 001.6 1.6zm0-4.797H24v3.198h-3.198V9.595zM8.008 22.388H4.81a1.6 1.6 0 01-1.599-1.6v-3.197a1.6 1.6 0 011.6-1.6h3.197a1.6 1.6 0 011.6 1.6v3.198a1.6 1.6 0 01-1.6 1.6zm0-4.797H4.81v3.198h3.198V17.59zM4.81 30.384h3.198a1.6 1.6 0 001.6-1.6v-3.198a1.6 1.6 0 00-1.6-1.599H4.81a1.6 1.6 0 00-1.599 1.6v3.198a1.6 1.6 0 001.6 1.599zm0-4.798h3.198v3.199H4.81v-3.199zm11.194-3.198h-3.198a1.6 1.6 0 01-1.6-1.6v-3.197a1.6 1.6 0 011.6-1.6h3.198a1.6 1.6 0 011.6 1.6v3.198a1.6 1.6 0 01-1.6 1.6zm0-4.797h-3.198v3.198h3.198V17.59zm4.798 4.797H24a1.6 1.6 0 001.599-1.6v-3.197a1.6 1.6 0 00-1.6-1.6h-3.197a1.6 1.6 0 00-1.6 1.6v3.198a1.6 1.6 0 001.6 1.6zm0-4.797H24v3.198h-3.198V17.59zm-4.798 12.793h-3.198a1.6 1.6 0 01-1.6-1.6v-3.198a1.6 1.6 0 011.6-1.599h3.198a1.6 1.6 0 011.6 1.6v3.198a1.6 1.6 0 01-1.6 1.599zm0-4.798h-3.198v3.199h3.198v-3.199zM4.81 38.38h3.198a1.6 1.6 0 001.6-1.6v-3.198a1.6 1.6 0 00-1.6-1.6H4.81a1.6 1.6 0 00-1.599 1.6v3.198a1.6 1.6 0 001.6 1.6zm0-4.798h3.198v3.198H4.81v-3.198zm11.194 4.797h-3.198a1.6 1.6 0 01-1.6-1.599v-3.198a1.6 1.6 0 011.6-1.6h3.198a1.6 1.6 0 011.6 1.6v3.198a1.6 1.6 0 01-1.6 1.6zm0-4.797h-3.198v3.198h3.198v-3.198zm-.8 9.595h-1.599v1.6h1.6v-1.6z" fill="#495567"/></symbol><symbol id="icon-logo"><path fill-rule="evenodd" clip-rule="evenodd" d="M107.697 23.2V28h-8.4c-.906 0-1.647-.293-2.22-.88-.573-.587-.86-1.333-.86-2.24V12.96h-5.88v-4.8h5.88V0h5.04v8.16h7.16v4.8h-7.16V22c0 .8.36 1.2 1.08 1.2h5.36zM9.72 28.56c2.613 0 4.64-.587 6.08-1.76 1.44-1.173 2.16-2.747 2.16-4.72v-.24c0-1.787-.64-3.18-1.92-4.18-1.28-1-2.933-1.607-4.96-1.82-1.76-.187-2.973-.42-3.64-.7-.667-.28-1-.74-1-1.38 0-.453.213-.833.64-1.14.427-.307 1.067-.46 1.92-.46.933 0 1.693.207 2.28.62.587.413 1 .98 1.24 1.7l4.56-1.84a8.837 8.837 0 00-.92-1.74c-.4-.6-.92-1.147-1.56-1.64-.64-.493-1.42-.893-2.34-1.2-.92-.307-2.007-.46-3.26-.46-.96 0-1.893.133-2.8.4a7.473 7.473 0 00-2.4 1.18 6.193 6.193 0 00-1.68 1.9c-.427.747-.64 1.613-.64 2.6v.24c0 1.893.66 3.327 1.98 4.3 1.32.973 3.1 1.553 5.34 1.74.827.08 1.513.187 2.06.32.547.133.98.3 1.3.5.32.2.54.413.66.64.12.227.18.473.18.74 0 .453-.233.873-.7 1.26-.467.387-1.327.58-2.58.58-1.413 0-2.46-.32-3.14-.96-.68-.64-1.127-1.387-1.34-2.24L.6 22.32c.133.693.393 1.407.78 2.14.387.733.94 1.4 1.66 2 .72.6 1.627 1.1 2.72 1.5 1.093.4 2.413.6 3.96.6zm22.454 0c2.827 0 5.087-.72 6.78-2.16 1.694-1.44 2.767-3.333 3.22-5.68l-4.96-1.24c-.24 1.307-.766 2.347-1.58 3.12-.813.773-1.993 1.16-3.54 1.16-.72 0-1.4-.113-2.04-.34a4.705 4.705 0 01-1.68-1.02c-.48-.453-.86-1.02-1.14-1.7-.28-.68-.42-1.46-.42-2.34v-.24c0-.88.14-1.673.42-2.38.28-.707.66-1.307 1.14-1.8a5.006 5.006 0 011.68-1.14 5.25 5.25 0 012.04-.4c1.547 0 2.747.427 3.6 1.28a5.184 5.184 0 011.52 3.04l4.96-1.28c-.453-2.347-1.54-4.24-3.26-5.68-1.72-1.44-3.966-2.16-6.74-2.16-1.44 0-2.793.24-4.06.72a9.725 9.725 0 00-3.32 2.08c-.946.907-1.686 2-2.22 3.28-.533 1.28-.8 2.72-.8 4.32v.48c0 1.6.267 3.027.8 4.28.534 1.253 1.267 2.307 2.2 3.16.934.853 2.034 1.507 3.3 1.96 1.267.453 2.634.68 4.1.68zm26.355-.68c-1.24.453-2.54.68-3.9.68-1.36 0-2.66-.227-3.9-.68a9.996 9.996 0 01-3.3-1.98c-.96-.867-1.72-1.933-2.28-3.2-.56-1.267-.84-2.727-.84-4.38v-.48c0-1.627.28-3.073.84-4.34.56-1.267 1.32-2.34 2.28-3.22a9.827 9.827 0 013.3-2c1.24-.453 2.54-.68 3.9-.68 1.36 0 2.66.227 3.9.68a9.827 9.827 0 013.3 2c.96.88 1.72 1.953 2.28 3.22.56 1.267.84 2.713.84 4.34v.48c0 1.653-.28 3.113-.84 4.38-.56 1.267-1.32 2.333-2.28 3.2a9.996 9.996 0 01-3.3 1.98zm-3.9-4.12c-.72 0-1.4-.12-2.04-.36-.64-.24-1.2-.587-1.68-1.04a4.911 4.911 0 01-1.14-1.66c-.28-.653-.42-1.393-.42-2.22v-.8c0-.827.14-1.567.42-2.22.28-.653.66-1.207 1.14-1.66.48-.453 1.04-.8 1.68-1.04.64-.24 1.32-.36 2.04-.36s1.4.12 2.04.36c.64.24 1.2.587 1.68 1.04.48.453.86 1.007 1.14 1.66.28.653.42 1.393.42 2.22v.8c0 .827-.14 1.567-.42 2.22a4.911 4.911 0 01-1.14 1.66c-.48.453-1.04.8-1.68 1.04-.64.24-1.32.36-2.04.36zm26.594 4.12c-1.24.453-2.54.68-3.9.68-1.36 0-2.66-.227-3.9-.68a9.996 9.996 0 01-3.3-1.98c-.96-.867-1.72-1.933-2.28-3.2-.56-1.267-.84-2.727-.84-4.38v-.48c0-1.627.28-3.073.84-4.34.56-1.267 1.32-2.34 2.28-3.22a9.827 9.827 0 013.3-2c1.24-.453 2.54-.68 3.9-.68 1.36 0 2.66.227 3.9.68a9.827 9.827 0 013.3 2c.96.88 1.72 1.953 2.28 3.22.56 1.267.84 2.713.84 4.34v.48c0 1.653-.28 3.113-.84 4.38-.56 1.267-1.32 2.333-2.28 3.2a9.996 9.996 0 01-3.3 1.98zm-3.9-4.12c-.72 0-1.4-.12-2.04-.36a4.95 4.95 0 01-1.68-1.04 4.911 4.911 0 01-1.14-1.66c-.28-.653-.42-1.393-.42-2.22v-.8c0-.827.14-1.567.42-2.22.28-.653.66-1.207 1.14-1.66a4.95 4.95 0 011.68-1.04c.64-.24 1.32-.36 2.04-.36s1.4.12 2.04.36c.64.24 1.2.587 1.68 1.04.48.453.86 1.007 1.14 1.66.28.653.42 1.393.42 2.22v.8c0 .827-.14 1.567-.42 2.22a4.911 4.911 0 01-1.14 1.66c-.48.453-1.04.8-1.68 1.04-.64.24-1.32.36-2.04.36z" fill="#fff"/></symbol><symbol id="icon-pick-scooter"><path d="M18.07 30.301a.833.833 0 00-.585.242.833.833 0 00-.242.585c0 .217.089.43.242.584a.833.833 0 00.585.243.84.84 0 00.585-.242.832.832 0 00.242-.585.833.833 0 00-.242-.585.834.834 0 00-.585-.242z" fill="#000"/><path fill-rule="evenodd" clip-rule="evenodd" d="M34.54 16.419l-1.928-8.706a2.06 2.06 0 001.301-.718c.381.238.83.376 1.312.376h1.654c.456 0 .826-.37.826-.827V3.237a.827.827 0 00-.826-.827h-1.654a2.47 2.47 0 00-1.346.398 2.06 2.06 0 00-1.546-.698h-4.88c-.878 0-1.628.55-1.927 1.323h-1.96c-1.185 0-2.15.964-2.15 2.15 0 1.185.965 2.15 2.15 2.15h4.256v1.666a.827.827 0 101.654 0V7.732h1.447l2.075 9.379-3.928 6.997a2.429 2.429 0 01-2.113 1.234h-9.806c-.411-3.442-3.346-6.121-6.898-6.121a6.88 6.88 0 00-4.287 1.48l-.005.004a6.906 6.906 0 00-2.607 4.637H1.656c.108-5.944 4.977-10.746 10.946-10.746h5.866c.463 0 .84.377.84.84v7.426c0 .456.37.827.826.827h4.4a4.932 4.932 0 004.932-4.927l.004-2.747a.827.827 0 00-1.654-.003l-.004 2.748a3.279 3.279 0 01-3.278 3.274h-3.573v-6.599a2.48 2.48 0 00-.293-1.172 2.482 2.482 0 001.244-2.15 2.483 2.483 0 00-2.48-2.48h-3.019c-.29 0-.568.05-.827.142V2.522a2.484 2.484 0 00-2.48-2.48H7.77C3.904.041.69 2.88.098 6.582a.827.827 0 00-.039.25v.007a7.81 7.81 0 00-.06.972v4.302a2.487 2.487 0 002.111 2.453l1.832 1.83A12.568 12.568 0 000 25.545v.625c0 .457.37.827.827.827h4.647a.845.845 0 00-.017.165c0 1.2.444 2.298 1.176 3.14H.827a.827.827 0 000 1.654h9.358c.023.002.045.002.068.002a4.801 4.801 0 004.796-4.796.842.842 0 00-.016-.165h11.924a4.085 4.085 0 003.281-1.656h1.047A4.772 4.772 0 0032.1 30.3H21.377a.827.827 0 000 1.654h14.248l.096.002a4.801 4.801 0 004.796-4.796 4.79 4.79 0 00-.36-1.821h1.352c.457 0 .827-.37.827-.827 0-4.365-3.47-7.934-7.797-8.094zm-18.127-5.132h3.018a.828.828 0 010 1.654h-3.018a.828.828 0 010-1.654zM1.656 7.711a2.993 2.993 0 00-.002.102v4.3c0 .457.37.828.826.828h10.625a.828.828 0 00.827-.827V2.522a.828.828 0 00-.827-.827H7.771a6.128 6.128 0 00-5.845 4.311h8.78a.827.827 0 110 1.654H1.658l-.002.05zm2.821 6.884H6.37c-.397.226-.78.475-1.15.742l-.742-.742zm5.808 15.708a3.145 3.145 0 003.11-3.142.85.85 0 01.017-.165H7.095c.01.053.016.109.016.165a3.145 3.145 0 003.047 3.14h.113l.014.002zm-5.262-4.96a5.26 5.26 0 011.96-3.338L6.99 22a5.24 5.24 0 013.263-1.125 5.303 5.303 0 015.23 4.467H5.023zm31.029-21.28h-.827a.828.828 0 000 1.655h.827V4.064zM23.07 5.584c0-.274.222-.497.496-.497h1.822v.582c0 .14.014.278.04.41h-1.862a.497.497 0 01-.496-.495zm4.382.496h4.881a.411.411 0 00.411-.411V4.174a.411.411 0 00-.41-.41h-4.882a.412.412 0 00-.41.41v1.494c0 .227.184.41.41.41zm11.411 21.08a3.145 3.145 0 01-3.11 3.142h-.007l-.007-.001-.018-.001h-.095a3.145 3.145 0 01-3.047-3.14c0-.657.205-1.292.582-1.821h5.12c.377.53.582 1.164.582 1.821zm-4.507-9.091l-3.153 5.616h9.426a6.454 6.454 0 00-6.273-5.616z" fill="#495567"/><path d="M28.649 13.533a.827.827 0 100-1.654h-.003a.826.826 0 10.003 1.654z" fill="#000"/></symbol><symbol id="icon-ride-scooter"><path fill-rule="evenodd" clip-rule="evenodd" d="M36.171 18H38a.667.667 0 00.667-.667V12a.667.667 0 00-.667-.667h-6.255l-1.078-2.157v-2.51A.667.667 0 0030 6h-4a.667.667 0 00-.667.667v2.666c0 .369.299.667.667.667h3.588l1.079 2.157V16a2 2 0 00-4 0v-1.333A.667.667 0 0026 14h-5.251l-2.082-.52V2.666A2.667 2.667 0 0016 0h-2.667a2.667 2.667 0 00-2.666 2.667V10H7.333a2 2 0 00-2 2v2H.667a.667.667 0 00-.472 1.138l1.529 1.529-1.529 1.528a.667.667 0 00.472 1.138h6.666a2 2 0 002-2v-2h1.334V22h-2a4.667 4.667 0 00-4.614 4H2a.667.667 0 00-.667.667v2.666c0 .369.299.667.667.667h2v1.333H.667A.667.667 0 000 32v2.667c0 .368.298.666.667.666H8a4.667 4.667 0 109.333 0h12a4.667 4.667 0 109.334 0h.666a.666.666 0 00.65-.816L36.171 18zm-9.504-2a2 2 0 104 0v14h-2v-.667a2 2 0 00-2-2V20a.667.667 0 00-.667-.667h-7.333v-1.812l1.838.459c.053.013.107.02.162.02H26a.667.667 0 00.667-.667V16zm2.666-7.333h-2.666V7.333h2.666v1.334zM4 34v-1.333H1.333V34H4zm0-5.333H2.667v-1.334H4v1.334zm33.333-16H36v4h1.333v-4zm-5.333 0h2.667v4H32v-4zm-4.667 16.666a.667.667 0 00-.666-.666H24V30h3.333v-.667zm-6.828-14.02a.63.63 0 00.162.02h4.666v1.334H20.75L16 15.479v-1.292l4.505 1.126zm-7.172-13.98c-.736 0-1.333.597-1.333 1.334v2.666h2V4c0-.368.299-.667.667-.667h2.666v-.666c0-.737-.597-1.334-1.333-1.334h-2.667zM12 6.667h2.667A.667.667 0 0015.333 6V4.667h2V6.17L12 7.77V6.667zm5.333 4V7.563L12 9.163v1.504h5.333zm0 1.333v1.146l-1.838-.46a.666.666 0 00-.828.647V16c0 .306.208.572.504.647l2.162.54v2.146H12V12h5.333zm8 15.333v-6.666H12V22h11.333c.369 0 .667.299.667.667v4.666h1.333zM8 17.333a.667.667 0 01-.667.667H2.276l.862-.862a.667.667 0 000-.943l-.862-.862H8v2zM6.667 12v2h4v-2.667H7.333a.667.667 0 00-.666.667zm6 26.667a3.337 3.337 0 01-3.334-3.334h1.334a2 2 0 104 0H16a3.337 3.337 0 01-3.333 3.334zm0-2.667a.667.667 0 00.666-.667H12c0 .369.299.667.667.667zm4.666-2H8v-6.667c0-.368.298-.666.667-.666h8c.368 0 .666.298.666.666V34zm1.334 0H20v-7.333a3.337 3.337 0 00-3.333-3.334h-8a3.337 3.337 0 00-3.334 3.334V34h1.334v-6.667a2 2 0 012-2h8a2 2 0 012 2V34zm1.26-10.667h2.74V30h-1.334v-3.333a4.651 4.651 0 00-1.406-3.334zM34 38.667a3.337 3.337 0 01-3.333-3.334H32a2 2 0 104 0h1.333A3.337 3.337 0 0134 38.667zM34 36a.667.667 0 00.667-.667h-1.334c0 .369.299.667.667.667zm-2-2v-4.667h1.333V28H32V18h2.8l3.692 16H32zm-10.667 0h9.334v-2.667h-9.334V34zM36 28h-1.333v1.333H36V28zM9.333 28h1.334v1.333H9.333V28zm4 0H12v1.333h1.333V28zm1.334 0H16v1.333h-1.333V28zm14-12.667a.667.667 0 110 1.334.667.667 0 010-1.334zM0 4.667h8.667V6H0V4.667zm9.333 2.666h-8v1.334h8V7.333z" fill="#495567"/></symbol><symbol id="icon-tw"><path d="M24 2.557a9.83 9.83 0 01-2.828.775A4.932 4.932 0 0023.337.608a9.864 9.864 0 01-3.127 1.195A4.916 4.916 0 0016.616.248c-3.179 0-5.515 2.966-4.797 6.045A13.978 13.978 0 011.671 1.149a4.93 4.93 0 001.523 6.574 4.903 4.903 0 01-2.229-.616c-.054 2.281 1.581 4.415 3.949 4.89a4.935 4.935 0 01-2.224.084 4.928 4.928 0 004.6 3.419A9.9 9.9 0 010 17.54a13.94 13.94 0 007.548 2.212c9.142 0 14.307-7.721 13.995-14.646A10.025 10.025 0 0024 2.557z" fill="#FCB72B"/></symbol></svg>